<?xml version="1.0" encoding="utf-8"?>
<svg viewBox="112.741 99.395 150.739 179.264" xmlns="http://www.w3.org/2000/svg">
  <defs>
    <clipPath id="425bfa3e1a">
      <path d="M 183 241 L 200 241 L 200 278.910156 L 183 278.910156 Z M 183 241 " clip-rule="nonzero"/>
    </clipPath>
    <clipPath id="dd20a2ffd2">
      <path d="M 112 99 L 263.480469 99 L 263.480469 257 L 112 257 Z M 112 99 " clip-rule="nonzero"/>
    </clipPath>
  </defs>
  <g clip-path="url(#425bfa3e1a)">
    <path fill="#e73f1c" d="M 184.691406 271.960938 C 186.164062 270.71875 188.15625 270.558594 190 270.21875 C 188.132812 262.847656 187.125 255.261719 187.050781 247.660156 C 187.042969 246.714844 187.046875 245.769531 187.066406 244.824219 C 187.082031 244.105469 187.082031 243.328125 187.441406 242.683594 C 188.207031 241.308594 190.230469 241.28125 191.613281 241.230469 C 192.925781 241.183594 194.753906 241.058594 195.046875 242.695312 C 195.070312 242.84375 195.082031 242.992188 195.101562 243.140625 C 195.535156 242.832031 196.300781 243.011719 196.285156 243.703125 C 196.0625 252.984375 196.90625 262.269531 198.84375 271.347656 C 199.066406 272.390625 199.308594 273.425781 199.554688 274.460938 C 199.75 275.273438 199.972656 276.148438 199.417969 276.871094 C 198.925781 277.515625 198.066406 277.660156 197.320312 277.828125 C 196.191406 278.082031 195.046875 278.269531 193.898438 278.40625 C 191.714844 278.671875 189.472656 278.75 187.28125 278.535156 C 185.792969 278.390625 184.144531 277.988281 183.386719 276.554688 C 182.542969 274.960938 183.417969 273.03125 184.691406 271.960938 Z M 197.042969 269.984375 C 197.1875 270.875 197.324219 271.761719 197.453125 272.652344 C 197.515625 272.660156 197.574219 272.671875 197.636719 272.691406 C 197.390625 271.597656 197.167969 270.5 196.953125 269.402344 C 196.984375 269.597656 197.015625 269.792969 197.042969 269.984375 Z M 193.730469 246.230469 C 193.730469 246.859375 193.734375 247.488281 193.734375 248.117188 C 193.773438 248.109375 193.808594 248.101562 193.847656 248.101562 C 193.832031 247.695312 193.832031 247.289062 193.8125 246.878906 C 193.78125 246.140625 193.746094 245.40625 193.703125 244.667969 C 193.695312 245.082031 193.675781 245.496094 193.640625 245.90625 C 193.691406 246 193.730469 246.105469 193.730469 246.230469 Z M 188.554688 244.335938 C 188.550781 244.402344 188.550781 244.46875 188.550781 244.535156 C 188.636719 244.363281 188.722656 244.191406 188.808594 244.023438 C 188.800781 243.871094 188.839844 243.722656 188.917969 243.59375 C 188.9375 243.457031 188.972656 243.324219 189.023438 243.195312 C 189.019531 243.183594 189.015625 243.171875 189.011719 243.160156 C 188.601562 243.433594 188.574219 243.875 188.554688 244.335938 Z M 192.417969 242.773438 C 192.441406 242.75 192.460938 242.722656 192.488281 242.703125 C 192.476562 242.703125 192.464844 242.703125 192.453125 242.703125 C 192 242.695312 191.542969 242.71875 191.089844 242.753906 C 191.09375 242.792969 191.09375 242.828125 191.09375 242.867188 C 191.109375 242.875 191.125 242.878906 191.136719 242.886719 C 191.5625 242.824219 191.988281 242.789062 192.417969 242.773438 Z M 192.417969 242.773438 " fill-opacity="1" fill-rule="nonzero"/>
  </g>
  <path fill="#e73f1c" d="M 145.027344 266.292969 C 146.695312 265.332031 148.6875 265.527344 150.558594 265.519531 C 150.027344 257.933594 150.371094 250.289062 151.640625 242.792969 C 151.796875 241.859375 151.96875 240.929688 152.15625 240.003906 C 152.296875 239.296875 152.433594 238.535156 152.902344 237.964844 C 153.898438 236.746094 155.894531 237.078125 157.261719 237.273438 C 158.5625 237.457031 160.382812 237.65625 160.382812 239.320312 C 160.382812 239.46875 160.363281 239.617188 160.359375 239.765625 C 160.839844 239.539062 161.5625 239.851562 161.425781 240.527344 C 159.570312 249.625 158.757812 258.914062 159.066406 268.191406 C 159.101562 269.257812 159.15625 270.320312 159.214844 271.382812 C 159.265625 272.214844 159.328125 273.117188 158.660156 273.730469 C 158.058594 274.277344 157.1875 274.265625 156.421875 274.300781 C 155.265625 274.347656 154.109375 274.332031 152.953125 274.265625 C 150.757812 274.140625 148.535156 273.820312 146.417969 273.222656 C 144.976562 272.816406 143.429688 272.128906 142.933594 270.585938 C 142.382812 268.867188 143.585938 267.125 145.027344 266.292969 Z M 157.535156 266.535156 C 157.523438 267.433594 157.5 268.332031 157.464844 269.230469 C 157.527344 269.25 157.585938 269.273438 157.640625 269.300781 C 157.59375 268.183594 157.566406 267.0625 157.550781 265.945312 C 157.542969 266.140625 157.542969 266.335938 157.535156 266.535156 Z M 158.464844 242.566406 C 158.355469 243.183594 158.246094 243.804688 158.136719 244.421875 C 158.175781 244.425781 158.214844 244.421875 158.25 244.429688 C 158.308594 244.027344 158.378906 243.625 158.433594 243.21875 C 158.53125 242.488281 158.625 241.753906 158.714844 241.023438 C 158.636719 241.429688 158.539062 241.832031 158.433594 242.230469 C 158.46875 242.332031 158.488281 242.445312 158.464844 242.566406 Z M 153.707031 239.789062 C 153.691406 239.851562 153.679688 239.917969 153.664062 239.984375 C 153.78125 239.828125 153.894531 239.675781 154.011719 239.523438 C 154.027344 239.375 154.09375 239.234375 154.195312 239.121094 C 154.234375 238.992188 154.292969 238.863281 154.367188 238.746094 C 154.363281 238.734375 154.363281 238.722656 154.363281 238.710938 C 153.910156 238.90625 153.808594 239.335938 153.707031 239.789062 Z M 157.78125 238.929688 C 157.808594 238.910156 157.835938 238.890625 157.863281 238.875 C 157.851562 238.875 157.839844 238.871094 157.828125 238.871094 C 157.382812 238.777344 156.933594 238.722656 156.480469 238.675781 C 156.476562 238.714844 156.46875 238.75 156.464844 238.789062 C 156.476562 238.800781 156.492188 238.804688 156.503906 238.816406 C 156.929688 238.828125 157.359375 238.871094 157.78125 238.929688 Z M 157.78125 238.929688 " fill-opacity="1" fill-rule="nonzero"/>
  <g clip-path="url(#dd20a2ffd2)">
    <path fill="#004aad" d="M 118.015625 149.898438 C 125.984375 127.089844 143.695312 108.9375 167.285156 102.753906 C 192.84375 96.050781 223.585938 98.539062 243.15625 117.921875 C 253.957031 128.621094 259.640625 143.277344 262.035156 158.074219 C 263.257812 165.628906 263.742188 173.285156 263.707031 180.933594 C 263.664062 189.910156 262.902344 198.882812 259.910156 207.40625 C 254.871094 221.765625 245.613281 235.085938 233.503906 244.34375 C 227.75 248.742188 221.210938 252.160156 214.230469 254.117188 C 205.699219 256.503906 196.707031 256.671875 187.945312 255.757812 C 179.195312 254.847656 170.449219 253.128906 161.953125 250.871094 C 153.839844 248.710938 145.816406 245.761719 138.675781 241.28125 C 132.234375 237.238281 126.46875 231.976562 122.394531 225.511719 C 117.839844 218.285156 115.757812 209.742188 114.359375 201.402344 C 111.496094 184.28125 112.265625 166.363281 118.015625 149.898438 Z M 255.378906 208.9375 C 255.265625 208.949219 255.152344 208.949219 255.039062 208.945312 C 255.035156 208.953125 255.035156 208.964844 255.03125 208.972656 C 255.023438 209.246094 255.019531 209.523438 255.023438 209.800781 C 255.140625 209.511719 255.261719 209.226562 255.378906 208.9375 Z M 242.375 163.527344 C 242.378906 163.539062 242.378906 163.550781 242.382812 163.5625 C 242.390625 163.589844 242.398438 163.613281 242.40625 163.640625 C 242.480469 163.101562 242.554688 162.566406 242.632812 162.027344 C 242.578125 161.5625 242.523438 161.097656 242.46875 160.632812 C 242.4375 161.558594 242.402344 162.484375 242.359375 163.410156 C 242.367188 163.449219 242.371094 163.488281 242.375 163.527344 Z M 231.597656 196.339844 C 231.730469 195.566406 231.863281 194.792969 231.980469 194.019531 C 231.882812 194.234375 231.789062 194.445312 231.695312 194.65625 C 231.707031 194.882812 231.6875 195.125 231.628906 195.382812 C 231.503906 195.910156 231.378906 196.4375 231.257812 196.960938 C 231.371094 196.753906 231.484375 196.546875 231.597656 196.339844 Z M 230.953125 241.648438 C 230.296875 242.078125 229.625 242.488281 228.945312 242.882812 C 228.367188 243.363281 227.78125 243.820312 227.1875 244.257812 C 228.476562 243.4375 229.730469 242.566406 230.953125 241.648438 Z M 218.992188 109.304688 C 220.195312 109.496094 221.390625 109.714844 222.570312 109.980469 C 222.601562 109.917969 222.644531 109.863281 222.683594 109.804688 C 222.445312 109.828125 222.195312 109.816406 221.929688 109.75 C 220.722656 109.445312 219.511719 109.160156 218.296875 108.886719 C 218.53125 109.015625 218.765625 109.15625 218.992188 109.304688 Z M 211.496094 250.96875 C 209.699219 251.3125 207.890625 251.636719 206.078125 251.910156 C 205.957031 251.953125 205.835938 251.996094 205.714844 252.035156 C 205.707031 252.039062 205.695312 252.046875 205.6875 252.054688 C 207.644531 251.796875 209.585938 251.4375 211.496094 250.96875 Z M 191.230469 252.347656 C 191.226562 252.328125 191.226562 252.308594 191.226562 252.285156 C 190.78125 252.21875 190.335938 252.140625 189.898438 252.054688 C 189.839844 252.09375 189.78125 252.132812 189.714844 252.164062 C 189.714844 252.183594 189.710938 252.203125 189.710938 252.222656 C 190.214844 252.265625 190.722656 252.3125 191.230469 252.347656 Z M 168.496094 149.691406 C 168.582031 149.878906 168.667969 150.070312 168.746094 150.261719 C 168.8125 149.503906 168.894531 148.746094 168.957031 147.988281 C 168.808594 148.558594 168.652344 149.121094 168.496094 149.691406 Z M 186.628906 127.882812 L 187.015625 128.246094 C 186.972656 128.019531 186.933594 127.789062 186.902344 127.554688 C 186.742188 127.476562 186.578125 127.398438 186.417969 127.320312 C 186.488281 127.507812 186.558594 127.695312 186.628906 127.882812 Z M 186.113281 221.253906 C 186.117188 221.246094 186.125 221.238281 186.128906 221.230469 C 185.726562 221.015625 185.324219 220.804688 184.921875 220.597656 C 184.871094 220.65625 184.816406 220.714844 184.757812 220.773438 C 185.210938 220.933594 185.660156 221.09375 186.113281 221.253906 Z M 182.375 194.21875 C 182.515625 193.792969 182.652344 193.367188 182.792969 192.941406 C 182.648438 192.714844 182.507812 192.484375 182.367188 192.257812 C 182.3125 192.402344 182.253906 192.542969 182.195312 192.6875 C 182.257812 193.199219 182.316406 193.707031 182.375 194.21875 Z M 180.304688 219.1875 C 180.28125 218.933594 180.261719 218.683594 180.242188 218.429688 C 180.210938 218.363281 180.179688 218.296875 180.148438 218.230469 C 180.078125 218.199219 180.007812 218.167969 179.9375 218.132812 C 179.777344 218.382812 179.609375 218.628906 179.445312 218.878906 C 179.734375 218.980469 180.019531 219.082031 180.304688 219.1875 Z M 169.355469 248.867188 C 169.320312 248.800781 169.296875 248.730469 169.273438 248.660156 C 168.96875 248.523438 168.664062 248.394531 168.363281 248.261719 C 168.316406 248.382812 168.261719 248.5 168.199219 248.613281 C 168.585938 248.699219 168.972656 248.785156 169.355469 248.867188 Z M 159.472656 179.925781 C 159.621094 179.578125 159.78125 179.234375 159.941406 178.890625 C 159.921875 178.53125 159.902344 178.167969 159.886719 177.808594 C 159.882812 177.804688 159.882812 177.804688 159.878906 177.800781 C 159.703125 178.398438 159.523438 178.996094 159.347656 179.59375 C 159.390625 179.703125 159.429688 179.8125 159.472656 179.925781 Z M 154.511719 180.75 C 154.59375 180.460938 154.675781 180.175781 154.757812 179.886719 C 154.679688 179.679688 154.601562 179.46875 154.523438 179.261719 C 154.503906 179.308594 154.488281 179.355469 154.46875 179.40625 C 154.449219 179.816406 154.429688 180.226562 154.40625 180.636719 C 154.441406 180.675781 154.476562 180.710938 154.511719 180.75 Z M 131.066406 132.988281 C 131.578125 131.824219 132.144531 130.699219 132.761719 129.609375 C 132 130.648438 131.265625 131.710938 130.554688 132.785156 C 130.730469 132.835938 130.898438 132.90625 131.066406 132.988281 Z M 119.84375 156.558594 C 120.472656 154.304688 121.199219 152.078125 122.039062 149.894531 C 122.085938 149.757812 122.132812 149.617188 122.179688 149.480469 C 122.191406 149.382812 122.199219 149.28125 122.210938 149.183594 C 121.300781 151.613281 120.503906 154.078125 119.8125 156.578125 C 119.824219 156.570312 119.835938 156.5625 119.84375 156.558594 Z M 116.734375 176.457031 C 116.695312 176.242188 116.660156 176.027344 116.632812 175.808594 C 116.585938 176.53125 116.554688 177.253906 116.523438 177.976562 C 116.589844 177.472656 116.664062 176.964844 116.734375 176.457031 Z M 116.734375 176.457031 " fill-opacity="1" fill-rule="nonzero"/>
  </g>
  <path fill="#ffffff" d="M 216.84375 188.316406 C 216.847656 188.238281 216.851562 188.164062 216.859375 188.085938 C 216.992188 186.839844 217.507812 185.554688 218.152344 184.460938 C 218.707031 183.105469 219.613281 182.023438 221.105469 181.671875 C 221.589844 181.558594 222.246094 181.855469 222.511719 182.265625 C 222.605469 182.410156 222.6875 182.554688 222.761719 182.699219 C 222.894531 182.859375 222.992188 183.03125 223.066406 183.214844 C 223.429688 183.535156 223.617188 184.019531 223.585938 184.566406 C 223.554688 185.199219 223.480469 185.832031 223.363281 186.457031 C 223.363281 186.460938 223.363281 186.464844 223.363281 186.46875 C 223.230469 187.878906 223.007812 189.488281 222.132812 190.644531 C 222.085938 190.703125 222.03125 190.753906 221.980469 190.8125 C 221.808594 191.289062 221.59375 191.746094 221.296875 192.125 C 220.308594 193.386719 218.328125 193.703125 217.265625 192.34375 C 216.515625 191.386719 216.582031 190.027344 216.738281 188.886719 C 216.765625 188.695312 216.804688 188.507812 216.84375 188.316406 Z M 216.84375 188.316406 " fill-opacity="1" fill-rule="nonzero"/>
  <path fill="#ffffff" d="M 167.996094 171.769531 C 168.867188 171.890625 169.328125 172.664062 169.285156 173.484375 C 168.902344 180.722656 173.546875 187.3125 179.800781 190.570312 C 185.636719 193.613281 192.667969 194.238281 198.828125 191.789062 C 202.101562 190.488281 204.914062 188.34375 206.863281 185.390625 C 207.316406 184.707031 208.390625 184.667969 208.992188 185.144531 C 209.679688 185.6875 209.695312 186.589844 209.242188 187.277344 C 205.230469 193.34375 197.832031 196.34375 190.738281 196.324219 C 182.777344 196.300781 174.578125 192.59375 169.996094 185.9375 C 167.390625 182.152344 166.039062 177.65625 166.28125 173.058594 C 166.324219 172.238281 167.234375 171.660156 167.996094 171.769531 Z M 167.996094 171.769531 " fill-opacity="1" fill-rule="nonzero"/>
  <path fill="#ffffff" d="M 156.148438 166.308594 C 156.359375 165.476562 156.636719 164.640625 157.238281 163.996094 C 157.402344 163.820312 157.582031 163.660156 157.773438 163.523438 C 158.265625 162.699219 159.058594 162.050781 160.09375 162.226562 C 161.054688 162.394531 161.511719 163.164062 161.746094 164.011719 C 162.207031 164.621094 162.464844 165.414062 162.476562 166.1875 C 162.503906 167.605469 162.128906 169.007812 161.339844 170.195312 C 161.308594 170.238281 161.277344 170.277344 161.246094 170.320312 C 160.953125 170.957031 160.566406 171.542969 160.058594 172.003906 C 159.355469 172.648438 158.332031 172.875 157.433594 172.53125 C 156.539062 172.1875 156.019531 171.304688 155.878906 170.390625 C 155.800781 169.875 155.816406 169.320312 155.894531 168.765625 C 155.878906 167.9375 155.941406 167.117188 156.148438 166.308594 Z M 156.148438 166.308594 " fill-opacity="1" fill-rule="nonzero"/>
</svg>