<?xml version="1.0" encoding="utf-8"?>
<svg viewBox="79.144 136.238 222.259 70.604" xmlns="http://www.w3.org/2000/svg">
  <defs>
    <clipPath id="15f293bf10">
      <path d="M 281 197 L 286 197 L 286 206.902344 L 281 206.902344 Z M 281 197 " clip-rule="nonzero"/>
    </clipPath>
    <clipPath id="7f2e35b3e4">
      <path d="M 264.082031 162 L 301.417969 162 L 301.417969 202 L 264.082031 202 Z M 264.082031 162 " clip-rule="nonzero"/>
    </clipPath>
  </defs>
  <g clip-path="url(#15f293bf10)">
    <path fill="#e73f1c" d="M 281.941406 205.195312 C 282.304688 204.890625 282.792969 204.847656 283.246094 204.765625 C 282.789062 202.953125 282.539062 201.089844 282.523438 199.21875 C 282.519531 198.988281 282.519531 198.753906 282.527344 198.523438 C 282.53125 198.34375 282.527344 198.152344 282.617188 197.996094 C 282.808594 197.65625 283.304688 197.652344 283.644531 197.636719 C 283.96875 197.625 284.417969 197.59375 284.492188 198 C 284.496094 198.035156 284.5 198.070312 284.503906 198.109375 C 284.613281 198.03125 284.800781 198.078125 284.796875 198.246094 C 284.742188 200.527344 284.949219 202.8125 285.425781 205.042969 C 285.480469 205.300781 285.539062 205.554688 285.601562 205.808594 C 285.648438 206.007812 285.703125 206.226562 285.570312 206.402344 C 285.445312 206.5625 285.234375 206.597656 285.050781 206.636719 C 284.773438 206.699219 284.492188 206.746094 284.207031 206.78125 C 283.671875 206.84375 283.117188 206.863281 282.578125 206.8125 C 282.210938 206.777344 281.804688 206.675781 281.621094 206.324219 C 281.410156 205.933594 281.628906 205.457031 281.941406 205.195312 Z M 284.984375 204.710938 C 285.019531 204.925781 285.050781 205.144531 285.082031 205.363281 C 285.097656 205.367188 285.113281 205.371094 285.128906 205.375 C 285.070312 205.105469 285.011719 204.835938 284.960938 204.566406 C 284.96875 204.613281 284.976562 204.660156 284.984375 204.710938 Z M 284.167969 198.867188 C 284.167969 199.023438 284.167969 199.175781 284.167969 199.332031 C 284.175781 199.328125 284.1875 199.328125 284.195312 199.328125 C 284.191406 199.226562 284.191406 199.128906 284.1875 199.027344 C 284.179688 198.84375 284.171875 198.664062 284.160156 198.484375 C 284.160156 198.585938 284.152344 198.6875 284.144531 198.789062 C 284.15625 198.8125 284.167969 198.835938 284.167969 198.867188 Z M 282.890625 198.402344 C 282.890625 198.417969 282.890625 198.433594 282.890625 198.449219 C 282.914062 198.410156 282.933594 198.367188 282.953125 198.324219 C 282.953125 198.289062 282.960938 198.25 282.980469 198.21875 C 282.984375 198.1875 282.996094 198.152344 283.007812 198.121094 C 283.007812 198.117188 283.003906 198.113281 283.003906 198.113281 C 282.902344 198.179688 282.898438 198.289062 282.890625 198.402344 Z M 283.84375 198.015625 C 283.847656 198.011719 283.855469 198.003906 283.859375 198 C 283.859375 198 283.855469 198 283.851562 198 C 283.742188 197.996094 283.628906 198.003906 283.515625 198.011719 C 283.519531 198.023438 283.519531 198.03125 283.519531 198.039062 C 283.519531 198.042969 283.523438 198.042969 283.527344 198.046875 C 283.632812 198.03125 283.738281 198.019531 283.84375 198.015625 Z M 283.84375 198.015625 " fill-opacity="1" fill-rule="nonzero"/>
  </g>
  <path fill="#e73f1c" d="M 272.171875 203.800781 C 272.582031 203.566406 273.074219 203.613281 273.535156 203.609375 C 273.402344 201.746094 273.488281 199.867188 273.800781 198.023438 C 273.839844 197.792969 273.878906 197.5625 273.925781 197.335938 C 273.960938 197.164062 273.996094 196.976562 274.109375 196.835938 C 274.355469 196.535156 274.847656 196.617188 275.183594 196.664062 C 275.503906 196.710938 275.953125 196.757812 275.953125 197.167969 C 275.953125 197.203125 275.949219 197.242188 275.949219 197.277344 C 276.066406 197.222656 276.242188 197.300781 276.210938 197.464844 C 275.753906 199.703125 275.554688 201.988281 275.628906 204.269531 C 275.636719 204.53125 275.652344 204.792969 275.667969 205.050781 C 275.679688 205.257812 275.695312 205.480469 275.527344 205.628906 C 275.382812 205.765625 275.164062 205.761719 274.976562 205.769531 C 274.695312 205.78125 274.410156 205.777344 274.125 205.761719 C 273.582031 205.730469 273.035156 205.652344 272.511719 205.503906 C 272.160156 205.40625 271.777344 205.234375 271.65625 204.855469 C 271.519531 204.433594 271.816406 204.003906 272.171875 203.800781 Z M 275.25 203.859375 C 275.25 204.082031 275.242188 204.300781 275.234375 204.523438 C 275.25 204.527344 275.265625 204.535156 275.277344 204.539062 C 275.265625 204.265625 275.257812 203.992188 275.257812 203.714844 C 275.253906 203.761719 275.253906 203.8125 275.25 203.859375 Z M 275.480469 197.964844 C 275.453125 198.117188 275.425781 198.269531 275.398438 198.421875 C 275.410156 198.421875 275.417969 198.421875 275.429688 198.425781 C 275.441406 198.324219 275.460938 198.226562 275.472656 198.125 C 275.496094 197.945312 275.519531 197.765625 275.542969 197.585938 C 275.523438 197.6875 275.5 197.785156 275.472656 197.882812 C 275.480469 197.910156 275.488281 197.9375 275.480469 197.964844 Z M 274.308594 197.28125 C 274.304688 197.300781 274.300781 197.316406 274.296875 197.332031 C 274.328125 197.292969 274.355469 197.253906 274.382812 197.21875 C 274.386719 197.179688 274.402344 197.148438 274.429688 197.121094 C 274.4375 197.085938 274.453125 197.054688 274.472656 197.027344 C 274.472656 197.023438 274.472656 197.019531 274.472656 197.019531 C 274.359375 197.066406 274.332031 197.171875 274.308594 197.28125 Z M 275.3125 197.070312 C 275.320312 197.066406 275.324219 197.0625 275.332031 197.058594 C 275.332031 197.058594 275.328125 197.058594 275.324219 197.058594 C 275.214844 197.035156 275.105469 197.019531 274.992188 197.011719 C 274.992188 197.019531 274.988281 197.027344 274.988281 197.039062 C 274.992188 197.039062 274.996094 197.042969 274.996094 197.042969 C 275.101562 197.046875 275.207031 197.058594 275.3125 197.070312 Z M 275.3125 197.070312 " fill-opacity="1" fill-rule="nonzero"/>
  <g clip-path="url(#7f2e35b3e4)">
    <path fill="#004aad" d="M 265.519531 175.179688 C 267.480469 169.570312 271.84375 165.105469 277.652344 163.585938 C 283.949219 161.9375 291.519531 162.550781 296.339844 167.316406 C 299 169.945312 300.402344 173.550781 300.992188 177.1875 C 301.292969 179.046875 301.410156 180.929688 301.402344 182.808594 C 301.390625 185.019531 301.203125 187.222656 300.46875 189.320312 C 299.226562 192.851562 296.945312 196.125 293.964844 198.402344 C 292.546875 199.484375 290.9375 200.324219 289.214844 200.804688 C 287.117188 201.394531 284.898438 201.433594 282.742188 201.210938 C 280.585938 200.988281 278.433594 200.5625 276.339844 200.007812 C 274.339844 199.476562 272.367188 198.753906 270.605469 197.648438 C 269.019531 196.65625 267.601562 195.363281 266.597656 193.773438 C 265.476562 191.996094 264.960938 189.894531 264.617188 187.84375 C 263.914062 183.632812 264.101562 179.226562 265.519531 175.179688 Z M 299.351562 189.695312 C 299.324219 189.699219 299.296875 189.699219 299.269531 189.699219 C 299.265625 189.699219 299.265625 189.703125 299.265625 189.707031 C 299.265625 189.773438 299.261719 189.839844 299.265625 189.910156 C 299.292969 189.835938 299.324219 189.765625 299.351562 189.695312 Z M 296.148438 178.53125 C 296.148438 178.53125 296.148438 178.535156 296.148438 178.539062 C 296.152344 178.546875 296.152344 178.550781 296.15625 178.558594 C 296.175781 178.425781 296.191406 178.292969 296.210938 178.160156 C 296.199219 178.046875 296.183594 177.933594 296.171875 177.816406 C 296.164062 178.046875 296.15625 178.273438 296.144531 178.5 C 296.144531 178.511719 296.148438 178.519531 296.148438 178.53125 Z M 293.496094 186.597656 C 293.527344 186.410156 293.558594 186.21875 293.589844 186.027344 C 293.566406 186.082031 293.542969 186.132812 293.519531 186.183594 C 293.519531 186.242188 293.515625 186.300781 293.5 186.363281 C 293.472656 186.492188 293.441406 186.621094 293.410156 186.75 C 293.4375 186.699219 293.464844 186.648438 293.496094 186.597656 Z M 293.335938 197.742188 C 293.175781 197.847656 293.007812 197.945312 292.839844 198.042969 C 292.699219 198.160156 292.554688 198.273438 292.40625 198.382812 C 292.726562 198.179688 293.035156 197.964844 293.335938 197.742188 Z M 290.390625 165.195312 C 290.683594 165.242188 290.980469 165.296875 291.269531 165.363281 C 291.277344 165.347656 291.289062 165.332031 291.296875 165.320312 C 291.238281 165.324219 291.179688 165.320312 291.113281 165.304688 C 290.816406 165.230469 290.515625 165.160156 290.21875 165.09375 C 290.277344 165.125 290.332031 165.160156 290.390625 165.195312 Z M 288.542969 200.03125 C 288.101562 200.117188 287.65625 200.195312 287.207031 200.265625 C 287.179688 200.273438 287.148438 200.285156 287.117188 200.292969 C 287.117188 200.296875 287.113281 200.296875 287.113281 200.300781 C 287.59375 200.234375 288.070312 200.148438 288.542969 200.03125 Z M 283.550781 200.371094 C 283.550781 200.367188 283.550781 200.363281 283.550781 200.355469 C 283.441406 200.339844 283.332031 200.320312 283.222656 200.300781 C 283.207031 200.308594 283.195312 200.320312 283.179688 200.328125 C 283.179688 200.332031 283.175781 200.335938 283.175781 200.339844 C 283.300781 200.351562 283.425781 200.363281 283.550781 200.371094 Z M 277.953125 175.128906 C 277.972656 175.175781 277.992188 175.222656 278.011719 175.269531 C 278.03125 175.082031 278.050781 174.894531 278.066406 174.710938 C 278.027344 174.847656 277.988281 174.988281 277.953125 175.128906 Z M 282.417969 169.765625 L 282.511719 169.855469 C 282.503906 169.796875 282.492188 169.742188 282.484375 169.683594 C 282.445312 169.664062 282.40625 169.644531 282.367188 169.625 C 282.382812 169.671875 282.402344 169.71875 282.417969 169.765625 Z M 282.289062 192.726562 C 282.292969 192.722656 282.292969 192.722656 282.296875 192.71875 C 282.195312 192.667969 282.097656 192.617188 281.996094 192.5625 C 281.984375 192.578125 281.972656 192.59375 281.957031 192.605469 C 282.066406 192.644531 282.179688 192.6875 282.289062 192.726562 Z M 281.371094 186.078125 C 281.40625 185.972656 281.4375 185.867188 281.472656 185.761719 C 281.4375 185.707031 281.402344 185.652344 281.367188 185.59375 C 281.355469 185.628906 281.339844 185.664062 281.328125 185.699219 C 281.339844 185.828125 281.355469 185.953125 281.371094 186.078125 Z M 280.859375 192.21875 C 280.855469 192.15625 280.851562 192.09375 280.84375 192.03125 C 280.835938 192.015625 280.828125 192 280.820312 191.980469 C 280.804688 191.972656 280.785156 191.964844 280.769531 191.957031 C 280.730469 192.019531 280.6875 192.082031 280.648438 192.140625 C 280.71875 192.167969 280.789062 192.191406 280.859375 192.21875 Z M 278.164062 199.515625 C 278.15625 199.5 278.148438 199.480469 278.144531 199.464844 C 278.070312 199.433594 277.992188 199.398438 277.917969 199.367188 C 277.90625 199.398438 277.894531 199.425781 277.878906 199.453125 C 277.972656 199.476562 278.070312 199.496094 278.164062 199.515625 Z M 275.730469 182.5625 C 275.765625 182.476562 275.804688 182.390625 275.84375 182.308594 C 275.839844 182.21875 275.835938 182.128906 275.832031 182.042969 C 275.832031 182.042969 275.832031 182.039062 275.828125 182.039062 C 275.785156 182.1875 275.742188 182.335938 275.699219 182.480469 C 275.707031 182.507812 275.71875 182.535156 275.730469 182.5625 Z M 274.507812 182.765625 C 274.527344 182.695312 274.546875 182.625 274.566406 182.554688 C 274.546875 182.5 274.527344 182.449219 274.511719 182.398438 C 274.507812 182.410156 274.5 182.421875 274.496094 182.433594 C 274.492188 182.535156 274.488281 182.636719 274.480469 182.738281 C 274.488281 182.746094 274.5 182.757812 274.507812 182.765625 Z M 268.730469 171.019531 C 268.859375 170.734375 269 170.457031 269.148438 170.1875 C 268.960938 170.445312 268.78125 170.707031 268.605469 170.96875 C 268.648438 170.984375 268.691406 171 268.730469 171.019531 Z M 265.96875 176.816406 C 266.121094 176.261719 266.300781 175.714844 266.507812 175.175781 C 266.519531 175.144531 266.53125 175.109375 266.542969 175.074219 C 266.546875 175.050781 266.550781 175.027344 266.550781 175.003906 C 266.328125 175.601562 266.128906 176.207031 265.960938 176.820312 C 265.964844 176.820312 265.964844 176.816406 265.96875 176.816406 Z M 265.203125 181.710938 C 265.191406 181.65625 265.183594 181.605469 265.175781 181.550781 C 265.167969 181.726562 265.15625 181.90625 265.152344 182.082031 C 265.167969 181.957031 265.183594 181.835938 265.203125 181.710938 Z M 265.203125 181.710938 " fill-opacity="1" fill-rule="nonzero"/>
  </g>
  <path fill="#ffffff" d="M 289.859375 184.625 C 289.859375 184.605469 289.863281 184.589844 289.863281 184.570312 C 289.898438 184.261719 290.023438 183.945312 290.183594 183.679688 C 290.320312 183.34375 290.542969 183.078125 290.910156 182.992188 C 291.03125 182.964844 291.191406 183.035156 291.257812 183.136719 C 291.277344 183.171875 291.300781 183.207031 291.316406 183.246094 C 291.351562 183.285156 291.375 183.328125 291.390625 183.371094 C 291.480469 183.449219 291.527344 183.570312 291.519531 183.703125 C 291.511719 183.859375 291.496094 184.015625 291.464844 184.167969 C 291.464844 184.167969 291.464844 184.171875 291.464844 184.171875 C 291.433594 184.519531 291.378906 184.914062 291.164062 185.199219 C 291.152344 185.210938 291.136719 185.226562 291.125 185.238281 C 291.082031 185.355469 291.03125 185.46875 290.957031 185.5625 C 290.714844 185.875 290.226562 185.949219 289.964844 185.617188 C 289.777344 185.382812 289.796875 185.046875 289.832031 184.765625 C 289.839844 184.71875 289.851562 184.671875 289.859375 184.625 Z M 289.859375 184.625 " fill-opacity="1" fill-rule="nonzero"/>
  <path fill="#ffffff" d="M 277.828125 180.558594 C 278.042969 180.585938 278.15625 180.777344 278.144531 180.976562 C 278.050781 182.757812 279.195312 184.378906 280.738281 185.179688 C 282.171875 185.929688 283.90625 186.082031 285.421875 185.480469 C 286.230469 185.160156 286.921875 184.632812 287.402344 183.90625 C 287.511719 183.738281 287.777344 183.726562 287.925781 183.847656 C 288.097656 183.980469 288.097656 184.203125 287.988281 184.371094 C 287 185.863281 285.175781 186.601562 283.429688 186.59375 C 281.46875 186.589844 279.449219 185.679688 278.320312 184.042969 C 277.679688 183.109375 277.347656 182.003906 277.40625 180.875 C 277.417969 180.671875 277.640625 180.53125 277.828125 180.558594 Z M 277.828125 180.558594 " fill-opacity="1" fill-rule="nonzero"/>
  <path fill="#ffffff" d="M 274.910156 179.214844 C 274.960938 179.007812 275.03125 178.804688 275.179688 178.644531 C 275.21875 178.601562 275.261719 178.5625 275.3125 178.527344 C 275.433594 178.328125 275.628906 178.167969 275.882812 178.210938 C 276.117188 178.25 276.230469 178.441406 276.289062 178.648438 C 276.402344 178.800781 276.464844 178.992188 276.46875 179.183594 C 276.476562 179.535156 276.382812 179.878906 276.1875 180.167969 C 276.179688 180.179688 276.171875 180.191406 276.164062 180.199219 C 276.09375 180.355469 276 180.5 275.875 180.613281 C 275.699219 180.773438 275.449219 180.828125 275.226562 180.742188 C 275.007812 180.660156 274.878906 180.441406 274.84375 180.21875 C 274.824219 180.089844 274.828125 179.953125 274.847656 179.820312 C 274.84375 179.613281 274.859375 179.414062 274.910156 179.214844 Z M 274.910156 179.214844 " fill-opacity="1" fill-rule="nonzero"/>
  <g fill="#004aad" fill-opacity="1">
    <g transform="translate(82.186617, 190.377057)">
      <g>
        <path d="M 50.8125 2.941406 C 52.390625 2.941406 53.125 2.203125 53.125 0.628906 C 53.125 -0.945312 52.390625 -1.679688 50.8125 -1.679688 C 46.089844 -1.679688 40.105469 -2.308594 32.652344 -3.570312 C 23.097656 -5.144531 17.007812 -6.089844 14.59375 -6.402344 C 15.539062 -10.8125 16.0625 -17.429688 16.0625 -26.246094 C 16.0625 -39.683594 14.804688 -47.980469 12.179688 -51.234375 C 11.234375 -52.285156 10.394531 -52.808594 9.554688 -52.808594 C 8.1875 -52.808594 7.558594 -51.757812 7.664062 -49.554688 C 7.875 -45.773438 8.609375 -40.523438 9.765625 -33.910156 C 10.8125 -27.714844 11.339844 -22.886719 11.339844 -19.316406 C 11.339844 -15.222656 10.8125 -11.023438 9.867188 -6.71875 C 6.089844 -6.929688 2.941406 -5.773438 0.421875 -3.148438 C -1.890625 -0.945312 -3.042969 1.574219 -3.042969 4.304688 C -3.042969 7.140625 -1.679688 8.609375 1.050781 8.609375 C 6.824219 8.609375 10.917969 5.144531 13.332031 -1.785156 C 16.691406 -1.574219 22.886719 -0.628906 32.019531 0.945312 C 39.894531 2.308594 46.089844 2.941406 50.8125 2.941406 Z M 8.398438 -1.996094 C 6.824219 1.679688 4.621094 3.675781 1.785156 3.882812 C 2.203125 1.785156 4.933594 -1.996094 6.71875 -1.996094 C 6.824219 -2.101562 7.453125 -2.101562 8.398438 -1.996094 Z M 8.398438 -1.996094 "/>
      </g>
    </g>
  </g>
  <g fill="#004aad" fill-opacity="1">
    <g transform="translate(132.36725, 190.377057)">
      <g>
        <path d="M 30.65625 -0.523438 C 30.761719 -2.625 30.132812 -3.675781 28.660156 -3.675781 C 27.714844 -3.675781 26.875 -3.148438 26.140625 -1.996094 C 23.832031 1.574219 21.207031 3.359375 18.371094 3.359375 C 12.914062 3.359375 8.085938 -3.464844 8.085938 -10.605469 C 9.554688 -10.5 10.917969 -10.394531 12.179688 -10.394531 C 23.726562 -10.394531 29.5 -14.804688 29.5 -23.621094 C 29.5 -29.082031 25.195312 -32.230469 19.738281 -32.230469 C 15.851562 -32.230469 12.386719 -30.867188 9.34375 -28.136719 C 5.878906 -25.09375 3.988281 -20.789062 3.675781 -15.433594 C 2.625 -15.117188 2.101562 -14.277344 2.101562 -13.125 C 2.101562 -12.074219 2.519531 -11.445312 3.359375 -11.128906 C 2.835938 -4.199219 4.933594 1.050781 9.449219 4.515625 C 13.4375 7.558594 17.847656 8.609375 22.675781 7.453125 C 27.613281 6.402344 30.238281 3.78125 30.65625 -0.523438 Z M 24.777344 -23.621094 C 24.777344 -17.847656 20.789062 -15.011719 12.703125 -15.011719 C 11.445312 -15.011719 9.972656 -15.117188 8.398438 -15.222656 C 9.554688 -23.203125 13.542969 -27.191406 20.472656 -27.191406 C 23.726562 -27.191406 24.777344 -26.667969 24.777344 -23.621094 Z M 24.777344 -23.621094 "/>
      </g>
    </g>
  </g>
  <g fill="#004aad" fill-opacity="1">
    <g transform="translate(165.121131, 190.377057)">
      <g>
        <path d="M 28.136719 -2.203125 C 27.296875 -3.570312 25.828125 -5.5625 23.832031 -8.1875 C 21.730469 -10.8125 20.261719 -12.808594 19.421875 -14.171875 C 23.832031 -19.527344 26.246094 -23.621094 26.773438 -26.351562 C 27.085938 -28.136719 26.035156 -29.5 24.671875 -29.5 C 23.621094 -29.5 22.78125 -28.976562 22.257812 -27.820312 C 19.632812 -22.675781 17.742188 -19.421875 16.796875 -18.269531 C 15.957031 -19.84375 15.117188 -21.3125 14.277344 -22.886719 C 13.226562 -24.671875 12.285156 -26.140625 11.339844 -27.085938 C 10.707031 -27.820312 9.972656 -28.242188 9.238281 -28.242188 C 7.875 -28.242188 7.140625 -27.507812 7.140625 -25.933594 C 7.140625 -25.40625 7.242188 -24.988281 7.453125 -24.566406 C 10.078125 -20.050781 12.074219 -16.691406 13.648438 -14.488281 C 6.613281 -6.300781 3.148438 0.105469 3.253906 4.722656 C 3.359375 6.507812 4.09375 7.453125 5.5625 7.453125 C 6.71875 7.453125 7.453125 6.71875 7.980469 5.355469 C 9.132812 1.679688 10.289062 -1.050781 11.234375 -2.941406 C 12.386719 -5.144531 14.066406 -7.664062 16.273438 -10.394531 C 18.898438 -6.195312 20.472656 -3.882812 20.789062 -3.359375 C 23.203125 0 25.195312 1.679688 26.5625 1.679688 C 27.925781 1.679688 28.660156 0.945312 28.660156 -0.421875 C 28.660156 -1.050781 28.453125 -1.679688 28.136719 -2.203125 Z M 28.136719 -2.203125 "/>
      </g>
    </g>
  </g>
  <g fill="#004aad" fill-opacity="1">
    <g transform="translate(197.140153, 190.377057)">
      <g>
        <path d="M 11.339844 -49.765625 C 11.339844 -51.339844 10.5 -52.074219 8.925781 -52.074219 C 7.347656 -52.074219 6.613281 -51.339844 6.613281 -49.765625 L 6.613281 -46.613281 C 6.613281 -45.039062 7.347656 -44.304688 8.925781 -44.304688 C 10.5 -44.304688 11.339844 -45.039062 11.339844 -46.613281 Z M 10.078125 -25.828125 C 10.078125 -27.402344 9.238281 -28.136719 7.664062 -28.136719 C 6.089844 -28.136719 5.355469 -27.402344 5.355469 -25.828125 C 5.355469 -20.050781 5.039062 -14.59375 4.410156 -9.238281 C 4.410156 -9.027344 4.199219 -7.769531 3.78125 -5.460938 C 3.570312 -3.882812 3.464844 -2.519531 3.464844 -1.574219 C 3.570312 0.210938 4.304688 1.15625 5.773438 1.15625 C 6.929688 1.15625 7.664062 0.421875 8.1875 -0.945312 C 9.449219 -4.722656 10.078125 -13.019531 10.078125 -25.828125 Z M 10.078125 -25.828125 "/>
      </g>
    </g>
  </g>
  <g fill="#004aad" fill-opacity="1">
    <g transform="translate(211.942387, 190.377057)">
      <g>
        <path d="M 44.621094 -18.476562 C 45.566406 -22.574219 46.089844 -25.09375 46.089844 -26.035156 C 46.089844 -28.242188 45.355469 -29.398438 43.78125 -29.398438 L 26.773438 -29.398438 C 25.195312 -29.398438 24.460938 -28.660156 24.460938 -27.085938 C 24.460938 -25.511719 25.195312 -24.671875 26.773438 -24.671875 L 40.945312 -24.671875 C 39.894531 -18.371094 38.84375 -14.066406 37.796875 -11.757812 C 35.695312 -7.140625 32.335938 -4.828125 27.714844 -4.828125 C 20.683594 -4.828125 15.117188 -7.980469 10.8125 -14.171875 C 7.035156 -19.632812 5.144531 -26.035156 5.144531 -33.386719 C 5.144531 -38.636719 7.664062 -42.625 12.703125 -45.355469 C 17.007812 -47.664062 21.941406 -48.609375 27.507812 -48.1875 C 28.453125 -48.085938 29.921875 -47.769531 32.125 -47.140625 C 34.121094 -46.613281 35.589844 -46.300781 36.640625 -46.300781 C 38.84375 -46.195312 39.894531 -46.824219 39.894531 -48.085938 C 39.894531 -48.925781 39.371094 -49.765625 38.320312 -50.707031 C 34.855469 -53.648438 30.027344 -54.699219 23.832031 -53.859375 C 17.847656 -53.019531 12.492188 -50.707031 7.980469 -47.035156 C 2.941406 -43.042969 0.421875 -38.53125 0.421875 -33.386719 C 0.421875 -24.671875 2.730469 -17.21875 7.453125 -10.8125 C 12.597656 -3.675781 19.316406 -0.105469 27.714844 -0.105469 C 32.964844 -0.105469 36.957031 -1.996094 39.683594 -5.667969 C 41.46875 -8.292969 43.148438 -12.492188 44.621094 -18.476562 Z M 44.621094 -18.476562 "/>
      </g>
    </g>
  </g>
  <path stroke-linecap="butt" transform="matrix(0.75, 0, 0, 0.75, 84.500977, 129.812515)" fill="none" stroke-linejoin="miter" d="M 67.748705 88.916657 C 69.863288 88.916657 70.82683 87.932282 70.82683 85.838532 C 70.82683 83.74999 69.863288 82.765615 67.748705 82.765615 C 61.457037 82.765615 53.47787 81.921865 43.535161 80.244782 C 30.800785 78.130198 22.680993 76.880198 19.457035 76.46874 C 20.712243 70.583323 21.41016 61.765614 21.41016 49.99478 C 21.41016 32.093737 19.748701 21.020819 16.238284 16.697902 C 14.967451 15.281236 13.863284 14.583319 12.733076 14.583319 C 10.910159 14.583319 10.087242 15.979152 10.212242 18.932278 C 10.498701 23.973945 11.483076 30.968737 13.019534 39.786446 C 14.415368 48.046863 15.113284 54.489572 15.113284 59.24478 C 15.113284 64.697906 14.415368 70.296864 13.165368 76.041656 C 8.118492 75.74999 3.915367 77.31249 0.555992 80.796865 C -2.522133 83.74999 -4.058592 87.09374 -4.058592 90.739574 C -4.058592 94.515616 -2.235675 96.484366 1.394533 96.484366 C 9.102867 96.484366 14.561201 91.869782 17.779951 82.619782 C 22.248702 82.90624 30.514327 84.161449 42.691411 86.24999 C 53.191412 88.078115 61.457037 88.916657 67.748705 88.916657 Z M 11.196617 82.333323 C 9.102867 87.234365 6.149742 89.901032 2.378909 90.187491 C 2.930992 87.380199 6.582034 82.333323 8.962242 82.333323 C 9.102867 82.192698 9.946617 82.192698 11.196617 82.333323 Z M 107.774749 84.302074 C 107.920582 81.494782 107.076832 80.098948 105.128915 80.098948 C 103.858082 80.098948 102.748707 80.796865 101.764332 82.333323 C 98.691415 87.09374 95.186206 89.468741 91.410164 89.468741 C 84.134122 89.468741 77.691414 80.385407 77.691414 70.869781 C 79.63933 70.994781 81.467455 71.140614 83.149747 71.140614 C 98.545582 71.140614 106.23829 65.255197 106.23829 53.505197 C 106.23829 46.223946 100.493498 42.020821 93.217456 42.020821 C 88.050789 42.020821 83.436206 43.843738 79.373705 47.473946 C 74.738288 51.536446 72.217455 57.27603 71.805996 64.411447 C 70.415371 64.843739 69.717455 65.968739 69.717455 67.510406 C 69.717455 68.901031 70.269538 69.744781 71.378913 70.156239 C 70.680996 79.401032 73.488288 86.395824 79.498705 91.026032 C 84.826831 95.088533 90.712248 96.484366 97.154956 94.942699 C 103.712249 93.531241 107.222665 90.046866 107.774749 84.302074 Z M 99.941415 53.505197 C 99.941415 61.192697 94.628915 64.984364 83.842456 64.984364 C 82.165372 64.984364 80.217455 64.843739 78.102872 64.697906 C 79.63933 54.05728 84.972664 48.74478 94.201831 48.74478 C 98.545582 48.74478 99.941415 49.442696 99.941415 53.505197 Z M 148.102876 82.067698 C 146.977876 80.244782 145.009126 77.578115 142.363293 74.09374 C 139.556001 70.583323 137.602876 67.916656 136.477876 66.093739 C 142.363293 58.958322 145.582043 53.505197 146.27996 49.874988 C 146.691418 47.473946 145.295585 45.671863 143.467459 45.671863 C 142.076834 45.671863 140.946626 46.369779 140.248709 47.906238 C 136.764334 54.755197 134.243501 59.104155 132.972667 60.640614 C 131.863292 58.546864 130.738292 56.578113 129.608084 54.489572 C 128.21225 52.109363 126.96225 50.140613 125.691417 48.890613 C 124.852875 47.906238 123.889333 47.354154 122.904958 47.354154 C 121.076833 47.354154 120.092458 48.317696 120.092458 50.427071 C 120.092458 51.124988 120.238291 51.677071 120.52475 52.255196 C 124.009125 58.260405 126.675792 62.749989 128.769542 65.682281 C 119.394541 76.59374 114.785166 85.145824 114.925791 91.296866 C 115.050791 93.671866 116.035166 94.942699 118.003916 94.942699 C 119.540375 94.942699 120.52475 93.958324 121.222666 92.135407 C 122.759125 87.234365 124.295583 83.604157 125.550792 81.083323 C 127.108083 78.130198 129.342459 74.786448 132.27475 71.140614 C 135.779959 76.734365 137.873709 79.81249 138.300792 80.53124 C 141.519543 84.99999 144.165376 87.234365 145.993501 87.234365 C 147.816418 87.234365 148.800793 86.24999 148.800793 84.447907 C 148.800793 83.604157 148.514335 82.765615 148.102876 82.067698 Z M 168.384128 18.645819 C 168.384128 16.552069 167.274753 15.567694 165.165378 15.567694 C 163.071627 15.567694 162.087252 16.552069 162.087252 18.645819 L 162.087252 22.848945 C 162.087252 24.937486 163.071627 25.921861 165.165378 25.921861 C 167.274753 25.921861 168.384128 24.937486 168.384128 22.848945 Z M 166.701836 50.572905 C 166.701836 48.458321 165.597669 47.473946 163.483086 47.473946 C 161.389336 47.473946 160.404961 48.458321 160.404961 50.572905 C 160.404961 58.260405 159.998711 65.541656 159.154961 72.677073 C 159.154961 72.963531 158.868502 74.645823 158.316419 77.71874 C 158.02996 79.81249 157.884127 81.635407 157.884127 82.90624 C 158.02996 85.286449 159.014336 86.536449 160.962252 86.536449 C 162.519544 86.536449 163.483086 85.552074 164.181003 83.74999 C 165.863294 78.703115 166.701836 67.630197 166.701836 50.572905 Z M 232.493507 60.374989 C 233.76434 54.895822 234.462257 51.536446 234.462257 50.286446 C 234.462257 47.354154 233.477882 45.812488 231.384132 45.812488 L 208.707047 45.812488 C 206.597672 45.812488 205.63413 46.776029 205.63413 48.890613 C 205.63413 50.979155 206.597672 52.109363 208.707047 52.109363 L 227.592465 52.109363 C 226.196632 60.49478 224.806006 66.239572 223.410173 69.312489 C 220.602881 75.484365 216.128923 78.56249 209.957047 78.56249 C 200.587255 78.56249 193.165379 74.359365 187.420587 66.093739 C 182.37892 58.812489 179.87892 50.286446 179.87892 40.484362 C 179.87892 33.48957 183.217462 28.161445 189.946629 24.531236 C 195.686213 21.453111 202.269547 20.182278 209.691422 20.755194 C 210.941422 20.880194 212.910172 21.312486 215.842464 22.151028 C 218.509131 22.848945 220.457048 23.260403 221.873715 23.260403 C 224.806006 23.401028 226.196632 22.562486 226.196632 20.880194 C 226.196632 19.770819 225.503923 18.645819 224.10809 17.395819 C 219.472673 13.479152 213.035172 12.062485 204.79038 13.192694 C 196.816421 14.317694 189.660171 17.395819 183.649754 22.296861 C 176.925795 27.604153 173.561211 33.635404 173.561211 40.484362 C 173.561211 52.109363 176.639337 62.036447 182.951837 70.583323 C 189.800796 80.098948 198.764338 84.854157 209.957047 84.854157 C 216.972673 84.854157 222.279965 82.333323 225.910173 77.432281 C 228.311215 73.947906 230.54559 68.348948 232.493507 60.374989 Z M 232.493507 60.374989 " stroke="#004aad" stroke-width="3.14994" stroke-opacity="1" stroke-miterlimit="4"/>
</svg>